# xmcd
#
# Track frame offsets: 
#        150
#        20063
#        36890
#        56308
#        72298
#        89179
#        108555
#        127415
#        142268
#        163605
#        189777
#
# Disc length: 2792 seconds
#
# Revision: 1
# Processed by: cddbd v1.5.2PL0 Copyright (c) Steve Scherf et al.
# Submitted via: ExactAudioCopy v1.0b4
#
DISCID=a60ae60b
DTITLE=Various Artist - Omega Vibes - Diaspora
DYEAR=1999
DGENRE=Ethnic
TTITLE0=Glykeria - Diaspora
TTITLE1=Eva Tselidou - Patrida
TTITLE2=Omega Vibes - Pentozali (Instrumental)
TTITLE3=Chiristos Dantis - O Filos
TTITLE4=Eva Tselidou - Nefi Tou Vorra
TTITLE5=Omega Vibes - Nihtes Tou Telous
TTITLE6=Omega Vibes - Xentemeno Mou Pouli
TTITLE7=Eva Tselidou - Mikri Thea
TTITLE8=Eva Tselidou - Never Give Up
TTITLE9=Omega Vibes - Mother Earth (Instrumental)
TTITLE10=Omega Vibes - Diaspora (Instrumental)
EXTD=
EXTT0=
EXTT1=
EXTT2=
EXTT3=
EXTT4=
EXTT5=
EXTT6=
EXTT7=
EXTT8=
EXTT9=
EXTT10=
PLAYORDER=
